<svg width="58" height="15" viewBox="0 0 58 15" fill="none" xmlns="http://www.w3.org/2000/svg">
<path d="M14.876 12.144C14.22 12.144 13.628 11.996 13.1 11.7C12.58 11.396 12.164 10.984 11.852 10.464C11.548 9.944 11.396 9.36 11.396 8.712C11.396 8.064 11.548 7.484 11.852 6.972C12.156 6.452 12.572 6.044 13.1 5.748C13.628 5.452 14.22 5.304 14.876 5.304C15.364 5.304 15.816 5.388 16.232 5.556C16.648 5.724 17.004 5.96 17.3 6.264C17.596 6.56 17.808 6.912 17.936 7.32L16.376 7.992C16.264 7.664 16.072 7.404 15.8 7.212C15.536 7.02 15.228 6.924 14.876 6.924C14.564 6.924 14.284 7 14.036 7.152C13.796 7.304 13.604 7.516 13.46 7.788C13.324 8.06 13.256 8.372 13.256 8.724C13.256 9.076 13.324 9.388 13.46 9.66C13.604 9.932 13.796 10.144 14.036 10.296C14.284 10.448 14.564 10.524 14.876 10.524C15.236 10.524 15.548 10.428 15.812 10.236C16.076 10.044 16.264 9.784 16.376 9.456L17.936 10.14C17.816 10.524 17.608 10.868 17.312 11.172C17.016 11.476 16.66 11.716 16.244 11.892C15.828 12.06 15.372 12.144 14.876 12.144ZM21.3479 12.144C20.8199 12.144 20.3679 12.032 19.9919 11.808C19.6239 11.576 19.3439 11.256 19.1519 10.848C18.9599 10.44 18.8639 9.964 18.8639 9.42V5.448H20.6639V9.276C20.6639 9.524 20.7119 9.744 20.8079 9.936C20.9119 10.12 21.0559 10.264 21.2399 10.368C21.4239 10.472 21.6319 10.524 21.8639 10.524C22.1039 10.524 22.3119 10.472 22.4879 10.368C22.6719 10.264 22.8119 10.12 22.9079 9.936C23.0119 9.744 23.0639 9.524 23.0639 9.276V5.448H24.8639V12H23.1839V10.704L23.2799 10.992C23.1279 11.384 22.8799 11.676 22.5359 11.868C22.1999 12.052 21.8039 12.144 21.3479 12.144ZM26.1795 12V5.448H27.9795V12H26.1795ZM26.1795 4.86V3.06H27.9795V4.86H26.1795ZM32.3807 12.144C31.7407 12.144 31.1687 11.992 30.6647 11.688C30.1607 11.384 29.7607 10.972 29.4647 10.452C29.1767 9.932 29.0327 9.356 29.0327 8.724C29.0327 8.084 29.1807 7.508 29.4767 6.996C29.7727 6.476 30.1727 6.064 30.6767 5.76C31.1807 5.456 31.7447 5.304 32.3687 5.304C32.8487 5.304 33.2727 5.396 33.6407 5.58C34.0167 5.756 34.3127 6.008 34.5287 6.336L34.2527 6.696V2.916H36.0527V12H34.3727V10.8L34.5407 11.172C34.3167 11.492 34.0127 11.736 33.6287 11.904C33.2447 12.064 32.8287 12.144 32.3807 12.144ZM32.5967 10.524C32.9247 10.524 33.2127 10.448 33.4607 10.296C33.7087 10.144 33.9007 9.932 34.0367 9.66C34.1807 9.388 34.2527 9.076 34.2527 8.724C34.2527 8.372 34.1807 8.06 34.0367 7.788C33.9007 7.516 33.7087 7.304 33.4607 7.152C33.2127 7 32.9247 6.924 32.5967 6.924C32.2687 6.924 31.9727 7.004 31.7087 7.164C31.4527 7.316 31.2527 7.528 31.1087 7.8C30.9647 8.064 30.8927 8.372 30.8927 8.724C30.8927 9.076 30.9647 9.388 31.1087 9.66C31.2527 9.932 31.4527 10.144 31.7087 10.296C31.9727 10.448 32.2687 10.524 32.5967 10.524ZM40.5269 12.144C39.8309 12.144 39.2269 11.992 38.7149 11.688C38.2029 11.376 37.8069 10.96 37.5269 10.44C37.2469 9.92 37.1069 9.344 37.1069 8.712C37.1069 8.056 37.2509 7.472 37.5389 6.96C37.8349 6.448 38.2309 6.044 38.7269 5.748C39.2229 5.452 39.7829 5.304 40.4069 5.304C40.9269 5.304 41.3869 5.388 41.7869 5.556C42.1869 5.716 42.5229 5.944 42.7949 6.24C43.0749 6.536 43.2869 6.88 43.4309 7.272C43.5749 7.656 43.6469 8.076 43.6469 8.532C43.6469 8.66 43.6389 8.788 43.6229 8.916C43.6149 9.036 43.5949 9.14 43.5629 9.228H38.6549V7.908H42.5429L41.6909 8.532C41.7709 8.188 41.7669 7.884 41.6789 7.62C41.5909 7.348 41.4349 7.136 41.2109 6.984C40.9949 6.824 40.7269 6.744 40.4069 6.744C40.0949 6.744 39.8269 6.82 39.6029 6.972C39.3789 7.124 39.2109 7.348 39.0989 7.644C38.9869 7.94 38.9429 8.3 38.9669 8.724C38.9349 9.092 38.9789 9.416 39.0989 9.696C39.2189 9.976 39.4029 10.196 39.6509 10.356C39.8989 10.508 40.1989 10.584 40.5509 10.584C40.8709 10.584 41.1429 10.52 41.3669 10.392C41.5989 10.264 41.7789 10.088 41.9069 9.864L43.3469 10.548C43.2189 10.868 43.0149 11.148 42.7349 11.388C42.4629 11.628 42.1389 11.816 41.7629 11.952C41.3869 12.08 40.9749 12.144 40.5269 12.144ZM47.2749 12.144C46.5549 12.144 45.9269 11.976 45.3909 11.64C44.8629 11.296 44.5029 10.836 44.3109 10.26L45.6309 9.636C45.7989 9.988 46.0269 10.264 46.3149 10.464C46.6029 10.664 46.9229 10.764 47.2749 10.764C47.5309 10.764 47.7269 10.712 47.8629 10.608C47.9989 10.504 48.0669 10.36 48.0669 10.176C48.0669 10.08 48.0429 10 47.9949 9.936C47.9469 9.864 47.8749 9.8 47.7789 9.744C47.6829 9.688 47.5629 9.64 47.4189 9.6L46.3029 9.288C45.7669 9.136 45.3549 8.892 45.0669 8.556C44.7789 8.212 44.6349 7.808 44.6349 7.344C44.6349 6.936 44.7389 6.58 44.9469 6.276C45.1549 5.972 45.4469 5.736 45.8229 5.568C46.1989 5.392 46.6309 5.304 47.1189 5.304C47.7589 5.304 48.3189 5.456 48.7989 5.76C49.2869 6.056 49.6309 6.476 49.8309 7.02L48.4989 7.644C48.4029 7.372 48.2269 7.156 47.9709 6.996C47.7229 6.828 47.4389 6.744 47.1189 6.744C46.8869 6.744 46.7029 6.792 46.5669 6.888C46.4389 6.984 46.3749 7.116 46.3749 7.284C46.3749 7.372 46.3989 7.452 46.4469 7.524C46.4949 7.596 46.5709 7.66 46.6749 7.716C46.7869 7.772 46.9229 7.824 47.0829 7.872L48.1269 8.184C48.6709 8.344 49.0869 8.588 49.3749 8.916C49.6629 9.236 49.8069 9.632 49.8069 10.104C49.8069 10.512 49.6989 10.868 49.4829 11.172C49.2749 11.476 48.9829 11.716 48.6069 11.892C48.2309 12.06 47.7869 12.144 47.2749 12.144ZM52.9107 12.144C52.4387 12.144 52.0307 12.068 51.6867 11.916C51.3427 11.764 51.0787 11.548 50.8947 11.268C50.7107 10.98 50.6187 10.64 50.6187 10.248C50.6187 9.88 50.7027 9.556 50.8707 9.276C51.0387 8.988 51.2947 8.748 51.6387 8.556C51.9907 8.364 52.4267 8.228 52.9467 8.148L54.9507 7.824V9.144L53.2707 9.444C53.0147 9.492 52.8187 9.576 52.6827 9.696C52.5467 9.808 52.4787 9.972 52.4787 10.188C52.4787 10.388 52.5547 10.544 52.7067 10.656C52.8587 10.768 53.0467 10.824 53.2707 10.824C53.5667 10.824 53.8267 10.76 54.0507 10.632C54.2747 10.504 54.4467 10.332 54.5667 10.116C54.6947 9.892 54.7587 9.648 54.7587 9.384V7.68C54.7587 7.432 54.6587 7.224 54.4587 7.056C54.2667 6.888 54.0027 6.804 53.6667 6.804C53.3467 6.804 53.0627 6.892 52.8147 7.068C52.5747 7.244 52.3987 7.476 52.2867 7.764L50.8467 7.08C50.9747 6.712 51.1787 6.396 51.4587 6.132C51.7387 5.868 52.0747 5.664 52.4667 5.52C52.8587 5.376 53.2867 5.304 53.7507 5.304C54.3027 5.304 54.7907 5.404 55.2147 5.604C55.6387 5.804 55.9667 6.084 56.1987 6.444C56.4387 6.796 56.5587 7.208 56.5587 7.68V12H54.8787V10.944L55.2867 10.872C55.0947 11.16 54.8827 11.4 54.6507 11.592C54.4187 11.776 54.1587 11.912 53.8707 12C53.5827 12.096 53.2627 12.144 52.9107 12.144Z" fill="black"/>
<g filter="url(#filter0_d_6_5)">
<circle cx="6" cy="9" r="2" fill="#1E67FF"/>
</g>
<defs>
<filter id="filter0_d_6_5" x="0" y="3" width="12" height="12" filterUnits="userSpaceOnUse" color-interpolation-filters="sRGB">
<feFlood flood-opacity="0" result="BackgroundImageFix"/>
<feColorMatrix in="SourceAlpha" type="matrix" values="0 0 0 0 0 0 0 0 0 0 0 0 0 0 0 0 0 0 127 0" result="hardAlpha"/>
<feOffset/>
<feGaussianBlur stdDeviation="2"/>
<feComposite in2="hardAlpha" operator="out"/>
<feColorMatrix type="matrix" values="0 0 0 0 0.117647 0 0 0 0 0.403922 0 0 0 0 1 0 0 0 0.45 0"/>
<feBlend mode="normal" in2="BackgroundImageFix" result="effect1_dropShadow_6_5"/>
<feBlend mode="normal" in="SourceGraphic" in2="effect1_dropShadow_6_5" result="shape"/>
</filter>
</defs>
</svg>
